<?xml version="1.0" encoding="utf-8"?>
<!-- Generator: Adobe Illustrator 21.0.0, SVG Export Plug-In . SVG Version: 6.00 Build 0)  -->
<svg version="1.1" id="图层_1" xmlns="http://www.w3.org/2000/svg" xmlns:xlink="http://www.w3.org/1999/xlink" x="0px" y="0px"
	 viewBox="0 0 26 52" style="enable-background:new 0 0 26 52;" xml:space="preserve">
<style type="text/css">
	.st0{fill:none;}
	.st1{fill:#CDE7ED;}
	.st2{fill:#0397BB;}
</style>
<title>首页</title>
<rect x="0" class="st0" width="26" height="26"/>
<rect x="0" y="26" class="st0" width="26" height="26"/>
<g>
	<path class="st1" d="M13,3.5c0.1,0,0.1,0,0.2,0c3.5,0.1,6.3,2.8,6.3,6v5.2l0.1,0.7l1.5,3.9H13H4.9l1.5-3.9l0.1-0.7V9.2
		C6.4,6,9.4,3.5,13,3.5 M13,1.5c-4.7,0-8.6,3.4-8.6,7.7v5.5L2,21.2h11h11l-2.4-6.6V9.5c0-4.2-3.6-7.9-8.3-8
		C13.2,1.5,13.1,1.5,13,1.5L13,1.5z"/>
	<path class="st1" d="M13,24.5c-2.2,0-4-1.4-4-3.2v-0.8c0-0.5,0.4-1,1-1s1,0.4,1,1v0.8c0,0.6,0.8,1.2,2,1.2s2-0.6,2-1.2v-0.8
		c0-0.5,0.4-1,1-1c0.6,0,1,0.4,1,1v0.8C17,23.1,15.2,24.5,13,24.5z"/>
</g>
<g>
	<path class="st2" d="M13,29.5c0.1,0,0.1,0,0.2,0c3.5,0.1,6.3,2.8,6.3,6v5.2l0.1,0.7l1.5,3.9H13H4.9l1.5-3.9l0.1-0.7v-5.5
		C6.4,32,9.4,29.5,13,29.5 M13,27.5c-4.7,0-8.6,3.4-8.6,7.7v5.5L2,47.2h11h11l-2.4-6.6v-5.2c0-4.2-3.6-7.9-8.3-8
		C13.2,27.5,13.1,27.5,13,27.5L13,27.5z"/>
	<path class="st2" d="M13,50.5c-2.2,0-4-1.4-4-3.2v-0.8c0-0.5,0.4-1,1-1s1,0.4,1,1v0.8c0,0.6,0.8,1.2,2,1.2s2-0.6,2-1.2v-0.8
		c0-0.5,0.4-1,1-1c0.6,0,1,0.4,1,1v0.8C17,49.1,15.2,50.5,13,50.5z"/>
</g>
</svg>
