<?xml version="1.0" encoding="utf-8"?>
<!-- Generator: Adobe Illustrator 21.0.0, SVG Export Plug-In . SVG Version: 6.00 Build 0)  -->
<svg version="1.1" id="图层_1" xmlns="http://www.w3.org/2000/svg" xmlns:xlink="http://www.w3.org/1999/xlink" x="0px" y="0px"
	 viewBox="0 0 26 52" style="enable-background:new 0 0 26 52;" xml:space="preserve">
<style type="text/css">
	.st0{fill:none;}
	.st1{fill:#CDE7ED;}
	.st2{fill:#0397BB;}
</style>
<title>首页</title>
<rect x="0" class="st0" width="26" height="26"/>
<rect x="0" y="26" class="st0" width="26" height="26"/>
<g>
	<path class="st1" d="M13,2.9c4.4,0,8,3.6,8,8s-3.6,8-8,8s-8-3.6-8-8S8.6,2.9,13,2.9 M13,0.9c-5.5,0-10,4.5-10,10s4.5,10,10,10
		c5.5,0,10-4.5,10-10S18.5,0.9,13,0.9L13,0.9z"/>
	<path class="st1" d="M19.1,25H6.9L6,23.6l2-5c0.2-0.5,0.8-0.8,1.3-0.6c0.5,0.2,0.8,0.8,0.6,1.3L8.4,23h9.1l-1.5-3.6
		c-0.2-0.5,0-1.1,0.6-1.3c0.5-0.2,1.1,0,1.3,0.6l2,5L19.1,25z"/>
	<path class="st1" d="M13,7.9c1.7,0,3,1.3,3,3s-1.3,3-3,3s-3-1.3-3-3S11.3,7.9,13,7.9 M13,5.9c-2.8,0-5,2.2-5,5c0,2.8,2.2,5,5,5
		c2.8,0,5-2.2,5-5C18,8.2,15.8,5.9,13,5.9L13,5.9z"/>
</g>
<g>
	<path class="st2" d="M13,29c4.4,0,8,3.6,8,8s-3.6,8-8,8s-8-3.6-8-8S8.6,29,13,29 M13,27C7.5,27,3,31.4,3,37s4.5,10,10,10
		c5.5,0,10-4.5,10-10S18.5,27,13,27L13,27z"/>
	<path class="st2" d="M19.1,51H6.9L6,49.6l2-5c0.2-0.5,0.8-0.8,1.3-0.6c0.5,0.2,0.8,0.8,0.6,1.3L8.4,49h9.1l-1.5-3.6
		c-0.2-0.5,0-1.1,0.6-1.3c0.5-0.2,1.1,0,1.3,0.6l2,5L19.1,51z"/>
	<path class="st2" d="M13,34c1.7,0,3,1.3,3,3s-1.3,3-3,3s-3-1.3-3-3S11.3,34,13,34 M13,32c-2.8,0-5,2.2-5,5c0,2.8,2.2,5,5,5
		c2.8,0,5-2.2,5-5C18,34.2,15.8,32,13,32L13,32z"/>
</g>
</svg>
