<svg xmlns="http://www.w3.org/2000/svg" width="42" height="36" viewBox="0 0 42 36"><defs><style>.a{fill:#f7f8f8;}.b{fill:#13ae67;}.c{fill:#009414;}.d{fill:#46e1e3;}</style></defs><title>高位水池</title><rect class="a" x="3" width="36" height="30"/><polygon class="b" points="1 35 1 1 7 1 7 3 2 3 2 31 40 31 40 3 29 3 29 1 41 1 41 35 1 35"/><path class="c" d="M6,2H6M40,32v2H2V32H40M42,0H28V4H39V30H3V4H8V0H0V36H42V0h0Z"/><path class="d" d="M17.6,15.1a3.4,3.4,0,0,0-5.3,0l-0.7.8a3.4,3.4,0,0,1-5.2,0l-0.8-.9C4.2,13.2,3,13.6,3,15.8V26a4,4,0,0,0,4,4H35a4,4,0,0,0,4-4V16c0-2.2-1.2-2.6-2.6-1l-0.8.9a3.3,3.3,0,0,1-5.2,0L29.6,15a3.3,3.3,0,0,0-5.2,0l-0.8.9a3.3,3.3,0,0,1-5.2,0Z"/><path class="d" d="M14,6a2,2,0,0,1-4,0c0-1.1,2-4,2-4S14,4.9,14,6Z"/><path class="d" d="M20,6a2,2,0,0,1-4,0c0-1.1,2-4,2-4S20,4.9,20,6Z"/><path class="d" d="M26,6a2,2,0,0,1-4,0c0-1.1,2-4,2-4S26,4.9,26,6Z"/><rect class="d" x="3" y="24" width="36" height="6"/></svg>