<svg id="图层_1" data-name="图层 1" xmlns="http://www.w3.org/2000/svg" width="26" height="52" viewBox="0 0 26 52"><defs><style>.cls-1{fill:#0397bb;opacity:0;}.cls-2,.cls-3{fill:none;stroke-linecap:round;stroke-linejoin:bevel;stroke-width:2px;fill-rule:evenodd;}.cls-2{stroke:#cde7ed;}.cls-3{stroke:#0397bb;}</style></defs><title>首页</title><rect class="cls-1" width="26" height="26"/><rect class="cls-1" y="26" width="26" height="26"/><polyline class="cls-2" points="1 12 13 2 25 12"/><polyline class="cls-2" points="19 3 24 3 24 8"/><polyline class="cls-2" points="4 15 4 24 10 24 10 17 16 17 16 24 22 24 22 15"/><polyline class="cls-3" points="1 38 13 28 25 38"/><polyline class="cls-3" points="19 29 24 29 24 34"/><polyline class="cls-3" points="4 41 4 50 10 50 10 43 16 43 16 50 22 50 22 41"/></svg>