<?xml version="1.0" encoding="utf-8"?>
<!-- Generator: Adobe Illustrator 21.0.0, SVG Export Plug-In . SVG Version: 6.00 Build 0)  -->
<svg version="1.1" id="图层_1" xmlns="http://www.w3.org/2000/svg" xmlns:xlink="http://www.w3.org/1999/xlink" x="0px" y="0px"
	 viewBox="0 0 26 52" style="enable-background:new 0 0 26 52;" xml:space="preserve">
<style type="text/css">
	.st0{fill:none;}
	.st1{fill:#CDE7ED;}
	.st2{fill:#0397BB;}
</style>
<title>首页</title>
<rect x="0" class="st0" width="26" height="26"/>
<g>
	<path class="st1" d="M25,12.8c-0.2,0-0.5-0.1-0.6-0.2L13,3.1L1.6,12.5c-0.4,0.4-1.1,0.3-1.4-0.1C-0.1,12-0.1,11.4,0.4,11l12-10h1.3
		l12,10c0.4,0.4,0.5,1,0.1,1.4C25.6,12.6,25.3,12.8,25,12.8z"/>
	<path class="st1" d="M24,9c-0.6,0-1-0.4-1-1V4h-4c-0.6,0-1-0.4-1-1s0.4-1,1-1h5l1,1v5C25,8.6,24.6,9,24,9z"/>
	<path class="st1" d="M22,25h-6l-1-1v-6h-4v6l-1,1H4l-1-1v-9c0-0.6,0.4-1,1-1s1,0.4,1,1v8h4v-6l1-1h6l1,1v6h4v-8c0-0.6,0.4-1,1-1
		s1,0.4,1,1v9L22,25z"/>
</g>
<rect x="0" y="26" class="st0" width="26" height="26"/>
<g>
	<g>
		<path class="st2" d="M25,38.8c-0.2,0-0.5-0.1-0.6-0.2L13,29.1L1.6,38.5c-0.4,0.4-1.1,0.3-1.4-0.1C-0.1,38-0.1,37.4,0.4,37l12-10
			h1.3l12,10c0.4,0.4,0.5,1,0.1,1.4C25.6,38.6,25.3,38.8,25,38.8z"/>
		<path class="st2" d="M24,35c-0.6,0-1-0.4-1-1v-4h-4c-0.6,0-1-0.4-1-1s0.4-1,1-1h5l1,1v5C25,34.6,24.6,35,24,35z"/>
		<path class="st2" d="M22,51h-6l-1-1v-6h-4v6l-1,1H4l-1-1v-9c0-0.6,0.4-1,1-1s1,0.4,1,1v8h4v-6l1-1h6l1,1v6h4v-8c0-0.6,0.4-1,1-1
			s1,0.4,1,1v9L22,51z"/>
	</g>
</g>
</svg>
