<svg id="图层_1" data-name="图层 1" xmlns="http://www.w3.org/2000/svg" width="200" height="100" viewBox="0 0 200 100"><defs><style>.cls-1{fill:#8c9abd;}.cls-2{fill:#9dadd4;}</style></defs><title>失联基站数背景</title><rect class="cls-1" width="200" height="100" rx="10.7" ry="10.7"/><path class="cls-2" d="M194.4,76.1l5.6-5.5V65.9l-6.5,6.5a11.6,11.6,0,0,1-12.6,2.3L178,78A12.8,12.8,0,0,0,194.4,76.1Z"/><path class="cls-2" d="M185.7,44L174.1,55.7c-4.1,3.9-4.8,10.1-2.7,14.9l3.2-3.2a11.9,11.9,0,0,1,3.2-10.8h0l8.9-9c3.4-3.3,9.3-4.6,13.4-2.7V41A12.9,12.9,0,0,0,185.7,44Z"/><path class="cls-2" d="M189.4,59.1a2.8,2.8,0,0,0-3.7,0L157.6,87.4h0a2.8,2.8,0,0,0,0,3.7,2.8,2.8,0,0,0,3.7,0l28.1-28.3A2.8,2.8,0,0,0,189.4,59.1Z"/><path class="cls-2" d="M191.9,89a1.8,1.8,0,1,0-2.5,2.5L196,98a10,10,0,0,0,2.4-2.5Z"/><path class="cls-2" d="M144.6,86.7l8.9-9.2a11.6,11.6,0,0,1,12.6-2.3l3.2-3a13.4,13.4,0,0,0-16.7,1.6L140.9,85.5a13.4,13.4,0,0,0-3,14.5h4C140,95.9,141.3,90,144.6,86.7Z"/><path class="cls-2" d="M193.7,84a1.6,1.6,0,0,0-1.6,1.6,1.4,1.4,0,0,0,1.6,1.4H200V84h-6.3Z"/><path class="cls-2" d="M172.9,94.5a13.2,13.2,0,0,0,2.7-14.9l-3.2,3.2a10.9,10.9,0,0,1-3.2,10.6l-6.5,6.7h4.7Z"/><path class="cls-2" d="M188,93.6a1.6,1.6,0,0,0-1.4-1.8,1.6,1.6,0,0,0-1.6,1.8V100h3V93.6Z"/><path class="cls-2" d="M143.7,61a1.6,1.6,0,0,0-1.6,1.6,1.4,1.4,0,0,0,1.6,1.4H156c1.1,0,1.8-.5,1.8-1.4A1.6,1.6,0,0,0,156,61H143.7Z"/><path class="cls-2" d="M160.4,59.4a1.8,1.8,0,0,0,0-2.5l-8.7-8.7a1.8,1.8,0,0,0-2.5,0,1.5,1.5,0,0,0,0,2.3l8.7,9A1.8,1.8,0,0,0,160.4,59.4Z"/><path class="cls-2" d="M162,42.1V54.8a1.6,1.6,0,0,0,1.6,1.6,1.4,1.4,0,0,0,1.4-1.6V42.1a1.4,1.4,0,0,0-1.4-1.6A1.6,1.6,0,0,0,162,42.1Z"/></svg>