<svg xmlns="http://www.w3.org/2000/svg" width="20" height="20" viewBox="0 0 20 20"><defs><style>.a{fill:#13ae67;}.b{fill:#009414;}.c{fill:#fff;}</style></defs><title>节点2_normal</title><path class="a" d="M10,19a9,9,0,1,1,9-9A9,9,0,0,1,10,19Z"/><path class="b" d="M10,2a8,8,0,1,1-8,8,8,8,0,0,1,8-8m0-2A10,10,0,1,0,20,10,10,10,0,0,0,10,0h0Z"/><path class="c" d="M13.1,13.2V15H6.3A4.6,4.6,0,0,1,7,13.1a12.7,12.7,0,0,1,2.2-2.4L10.8,9a2.1,2.1,0,0,0,.4-1.2,1.3,1.3,0,0,0-.3-1,1.3,1.3,0,0,0-1-.3,1.3,1.3,0,0,0-1,.4,1.9,1.9,0,0,0-.4,1.2L6.6,7.9A3.1,3.1,0,0,1,7.6,5.6a3.6,3.6,0,0,1,2.3-.7,3.3,3.3,0,0,1,2.3.8,2.6,2.6,0,0,1,.8,2A3.5,3.5,0,0,1,12.8,9a5.3,5.3,0,0,1-.8,1.3l-1.3,1.3L9.7,12.7l-0.4.5h3.8Z"/></svg>