<svg id="图层_1" data-name="图层 1" xmlns="http://www.w3.org/2000/svg" width="30" height="40" viewBox="0 0 30 40"><defs><style>.cls-1{fill:#c93f24;}.cls-2{fill:#940000;}.cls-3{font-size:16px;fill:#fff;font-family:Arial;font-weight:700;}</style></defs><title>节点4_alarm</title><path class="cls-1" d="M15,38.5C12,35,1,21.8,1,15a14,14,0,0,1,28,0C29,21.8,18,35,15,38.5Z"/><path class="cls-2" d="M15,2A13,13,0,0,1,28,15c0,2.9-2.5,8-7.1,14.4-2.2,3.1-4.5,5.8-5.9,7.5-1.4-1.7-3.7-4.4-5.9-7.5C4.5,23.1,2,17.9,2,15A13,13,0,0,1,15,2m0-2A15,15,0,0,0,0,15c0,8.3,15,25,15,25S30,23.3,30,15A15,15,0,0,0,15,0h0Z"/><text class="cls-3" transform="translate(10 22)">4</text></svg>