<?xml version="1.0" encoding="utf-8"?>
<!-- Generator: Adobe Illustrator 16.0.0, SVG Export Plug-In . SVG Version: 6.00 Build 0)  -->
<!DOCTYPE svg PUBLIC "-//W3C//DTD SVG 1.1//EN" "http://www.w3.org/Graphics/SVG/1.1/DTD/svg11.dtd">
<svg version="1.1" id="图层_1" xmlns="http://www.w3.org/2000/svg" xmlns:xlink="http://www.w3.org/1999/xlink" x="0px" y="0px"
	 width="40px" height="40px" viewBox="0 0 40 40" enable-background="new 0 0 40 40" xml:space="preserve">
<g>
	<path fill="#E2E0E0" d="M23.309,33.304c-2.199,0-5.186-1.868-7.82-3.517c-1.641-1.027-3.191-1.997-4.443-2.435
		c-0.698-0.244-1.386-0.473-2.057-0.695c-4.914-1.632-7.708-2.712-7.992-5.93c-0.253-2.868,1.1-3.855,4.459-6.008
		c0.539-0.345,1.111-0.711,1.713-1.114c0.897-0.6,1.824-1.354,2.806-2.153c2.497-2.033,5.327-4.336,8.382-4.606
		c0.249-0.022,0.491-0.033,0.73-0.033c3.438,0,5.997,2.249,8.474,4.423c1.102,0.969,2.145,1.884,3.264,2.619
		c1.406,0.921,3.027,1.28,4.459,1.597c2.328,0.515,3.297,0.843,3.518,2.031c0.539,2.918-0.402,6.237-2.582,9.107
		c-2.893,3.807-7.488,6.249-12.607,6.702C23.512,33.3,23.41,33.304,23.309,33.304L23.309,33.304z"/>
	<path fill="#929292" d="M19.087,7.813c3.062,0,5.37,2.028,7.813,4.174c1.08,0.949,2.197,1.93,3.377,2.704
		c1.559,1.021,3.275,1.401,4.791,1.736c2.137,0.473,2.65,0.704,2.748,1.236c0.49,2.642-0.383,5.675-2.395,8.321
		c-2.723,3.582-7.059,5.883-11.898,6.311c-0.07,0.006-0.143,0.009-0.215,0.009c-1.912,0-4.894-1.865-7.29-3.364
		c-1.69-1.058-3.286-2.057-4.644-2.53c-0.703-0.246-1.396-0.477-2.071-0.7c-4.646-1.544-7.082-2.471-7.312-5.07
		c-0.202-2.284,0.663-2.938,4.003-5.077c0.543-0.348,1.122-0.719,1.729-1.125c0.936-0.626,1.881-1.395,2.881-2.209
		c2.385-1.942,5.089-4.143,7.839-4.386C18.66,7.822,18.876,7.813,19.087,7.813 M19.087,5.813c-0.268,0-0.54,0.012-0.818,0.037
		c-4.608,0.407-8.486,4.805-11.656,6.925C2.396,15.594-0.369,16.639,0,20.815c0.408,4.615,5.256,5.574,10.715,7.482
		c3.094,1.081,8.643,6.007,12.593,6.007c0.133,0,0.262-0.005,0.391-0.017c10.736-0.949,17.404-9.852,16.084-16.988
		c-0.602-3.252-5.266-2.221-8.41-4.281C27.74,10.634,24.477,5.813,19.087,5.813L19.087,5.813z"/>
</g>
<path fill="#009215" d="M24.305,32.494"/>
<g>
	<g>
		<path fill="#929292" d="M10.912,19.776c-0.195,0.16-0.27,0.427-0.184,0.665c0.086,0.239,0.312,0.397,0.566,0.397
			c0.139,0,0.273-0.047,0.38-0.137l1.027-0.848c0.389-0.321,0.749-0.62,1.095-0.902c2.602,2.057,4.507,3.106,8.147,3.188
			c0.088,0,0.176,0.002,0.264,0.002c3.166,0,6.188-1.264,8.326-3.493c0.125-0.13,0.172-0.301,0.158-0.469
			c0.014-0.166-0.033-0.337-0.158-0.469c-2.197-2.289-5.32-3.55-8.59-3.489c-3.64,0.081-5.545,1.13-8.147,3.188
			c-0.366-0.3-0.73-0.602-1.095-0.903l-1.027-0.85c-0.256-0.21-0.634-0.173-0.844,0.083c-0.101,0.122-0.149,0.281-0.134,0.439
			c0.016,0.159,0.093,0.305,0.216,0.405l1.023,0.845c0.316,0.264,0.616,0.511,0.908,0.75c-0.303,0.249-0.606,0.499-0.908,0.749
			L10.912,19.776z M26.5,18.179c0-0.742,0.408-1.367,0.898-1.387c0.678,0.387,1.311,0.852,1.881,1.387
			c-0.57,0.534-1.201,1.001-1.879,1.389C26.91,19.548,26.5,18.921,26.5,18.179L26.5,18.179z M21.969,20.938
			c-3.196-0.072-4.825-0.891-7.211-2.758c2.386-1.868,4.015-2.687,7.211-2.759c1.416-0.029,2.822,0.222,4.137,0.742
			c-0.486,0.476-0.805,1.198-0.805,2.017c0,0.819,0.318,1.543,0.807,2.018C24.793,20.721,23.385,20.973,21.969,20.938L21.969,20.938
			z M21.969,20.938"/>
	</g>
</g>
<g>
	<path fill="#929292" d="M29.963,27.333c-1.705,1.266-3.16,1.266-4.863,0c-1.111-0.827-2.061-0.827-3.17,0
		c-1.69,1.253-3.067,1.253-4.756,0c-1.123-0.836-1.882-0.836-3.007,0l-0.464-0.614c1.365-1.015,2.514-1.056,3.934,0
		c1.339,0.998,2.33,1.115,3.827,0c1.42-1.056,2.74-1.008,4.098,0c1.395,1.036,2.486,1.077,3.936,0c1.42-1.056,2.35-1.056,3.77,0
		l-0.463,0.614C31.662,26.484,31.104,26.484,29.963,27.333L29.963,27.333z"/>
	<path fill="#929292" d="M29.963,24.951c-1.705,1.267-3.16,1.267-4.863,0c-1.111-0.826-2.061-0.826-3.17,0
		c-1.69,1.254-3.067,1.254-4.756,0c-1.123-0.835-1.882-0.835-3.007,0l-0.464-0.613c1.365-1.015,2.514-1.056,3.934,0
		c1.339,0.996,2.33,1.115,3.827,0c1.42-1.056,2.74-1.006,4.098,0c1.395,1.036,2.486,1.077,3.936,0c1.42-1.056,2.35-1.056,3.77,0
		l-0.463,0.613C31.662,24.102,31.104,24.102,29.963,24.951L29.963,24.951z"/>
</g>
</svg>
