<?xml version="1.0" encoding="utf-8"?>
<!-- Generator: Adobe Illustrator 16.0.0, SVG Export Plug-In . SVG Version: 6.00 Build 0)  -->
<!DOCTYPE svg PUBLIC "-//W3C//DTD SVG 1.1//EN" "http://www.w3.org/Graphics/SVG/1.1/DTD/svg11.dtd">
<svg version="1.1" id="图层_1" xmlns="http://www.w3.org/2000/svg" xmlns:xlink="http://www.w3.org/1999/xlink" x="0px" y="0px"
	 width="40px" height="40px" viewBox="0 0 40 40" enable-background="new 0 0 40 40" xml:space="preserve">
<g>
	<g>
		<path fill="#E5F9EE" d="M23.35,33.245c-2.199,0-5.186-1.868-7.82-3.517c-1.641-1.027-3.191-1.997-4.443-2.435
			c-0.698-0.244-1.386-0.473-2.057-0.695c-4.914-1.632-7.708-2.712-7.992-5.93c-0.253-2.868,1.1-3.855,4.459-6.008
			c0.539-0.345,1.111-0.711,1.713-1.114c0.897-0.6,1.824-1.354,2.806-2.153c2.497-2.033,5.327-4.336,8.382-4.606
			c0.249-0.022,0.491-0.033,0.73-0.033c3.438,0,5.998,2.249,8.473,4.423c1.103,0.969,2.145,1.884,3.265,2.619
			c1.405,0.921,3.027,1.28,4.459,1.597c2.327,0.515,3.297,0.843,3.517,2.031c0.54,2.918-0.401,6.237-2.582,9.107
			c-2.893,3.807-7.487,6.249-12.606,6.702C23.554,33.241,23.452,33.245,23.35,33.245L23.35,33.245z"/>
		<path fill="#009215" d="M19.128,7.754c3.061,0,5.37,2.028,7.813,4.174c1.08,0.949,2.197,1.93,3.377,2.704
			c1.559,1.021,3.275,1.401,4.791,1.736c2.137,0.473,2.65,0.704,2.749,1.236c0.489,2.642-0.384,5.675-2.395,8.321
			c-2.723,3.582-7.06,5.883-11.899,6.311c-0.07,0.006-0.143,0.009-0.215,0.009c-1.912,0-4.894-1.865-7.289-3.364
			c-1.69-1.058-3.286-2.057-4.644-2.53c-0.703-0.246-1.396-0.477-2.071-0.7c-4.646-1.544-7.082-2.471-7.312-5.07
			c-0.202-2.284,0.663-2.938,4.003-5.077c0.543-0.348,1.122-0.719,1.729-1.125c0.936-0.626,1.881-1.395,2.881-2.209
			c2.385-1.942,5.089-4.143,7.839-4.386C18.702,7.764,18.917,7.754,19.128,7.754 M19.128,5.754c-0.268,0-0.54,0.012-0.818,0.037
			c-4.608,0.407-8.486,4.805-11.656,6.925c-4.216,2.82-6.981,3.865-6.612,8.041c0.408,4.615,5.256,5.574,10.715,7.482
			c3.094,1.081,8.643,6.007,12.592,6.007c0.133,0,0.263-0.005,0.392-0.017c10.735-0.949,17.404-9.852,16.084-16.988
			c-0.602-3.252-5.267-2.221-8.41-4.281C27.781,10.576,24.519,5.754,19.128,5.754L19.128,5.754z"/>
	</g>
	<path fill="#009215" d="M24.347,32.436"/>
	<g>
		<g>
			<path fill="#009215" d="M10.954,19.717c-0.195,0.16-0.27,0.427-0.184,0.665c0.086,0.239,0.312,0.397,0.566,0.397
				c0.139,0,0.273-0.047,0.38-0.137l1.027-0.848c0.389-0.321,0.749-0.62,1.095-0.902c2.602,2.057,4.507,3.106,8.146,3.188
				c0.088,0,0.176,0.002,0.264,0.002c3.166,0,6.188-1.264,8.326-3.493c0.125-0.13,0.173-0.301,0.158-0.469
				c0.015-0.166-0.033-0.337-0.158-0.469c-2.196-2.289-5.32-3.55-8.59-3.489c-3.639,0.081-5.545,1.13-8.146,3.188
				c-0.366-0.3-0.73-0.602-1.095-0.903l-1.027-0.85c-0.256-0.21-0.634-0.173-0.844,0.083c-0.101,0.122-0.149,0.281-0.134,0.439
				c0.016,0.159,0.093,0.305,0.216,0.405l1.023,0.845c0.316,0.264,0.616,0.511,0.908,0.75c-0.303,0.249-0.606,0.499-0.908,0.749
				L10.954,19.717z M26.541,18.121c0-0.742,0.409-1.367,0.898-1.387c0.679,0.387,1.311,0.852,1.881,1.387
				c-0.57,0.534-1.2,1.001-1.879,1.389C26.952,19.49,26.541,18.863,26.541,18.121L26.541,18.121z M22.011,20.879
				c-3.197-0.072-4.825-0.891-7.211-2.758c2.386-1.868,4.015-2.687,7.211-2.759c1.415-0.029,2.821,0.222,4.136,0.742
				c-0.486,0.476-0.805,1.198-0.805,2.017c0,0.819,0.319,1.543,0.808,2.018C24.834,20.662,23.426,20.914,22.011,20.879
				L22.011,20.879z M22.011,20.879"/>
		</g>
	</g>
	<g>
		<path fill="#009215" d="M30.004,27.274c-1.705,1.266-3.159,1.266-4.862,0c-1.112-0.827-2.061-0.827-3.171,0
			c-1.689,1.253-3.066,1.253-4.755,0c-1.123-0.836-1.882-0.836-3.007,0l-0.464-0.614c1.365-1.015,2.514-1.056,3.934,0
			c1.339,0.998,2.33,1.115,3.826,0c1.42-1.056,2.741-1.008,4.099,0c1.394,1.036,2.486,1.077,3.935,0c1.42-1.056,2.351-1.056,3.77,0
			l-0.463,0.614C31.704,26.426,31.146,26.426,30.004,27.274L30.004,27.274z"/>
		<path fill="#009215" d="M30.004,24.893c-1.705,1.267-3.159,1.267-4.862,0c-1.112-0.826-2.061-0.826-3.171,0
			c-1.689,1.254-3.066,1.254-4.755,0c-1.123-0.835-1.882-0.835-3.007,0l-0.464-0.613c1.365-1.015,2.514-1.056,3.934,0
			c1.339,0.996,2.33,1.115,3.826,0c1.42-1.056,2.741-1.006,4.099,0c1.394,1.036,2.486,1.077,3.935,0c1.42-1.056,2.351-1.056,3.77,0
			l-0.463,0.613C31.704,24.043,31.146,24.043,30.004,24.893L30.004,24.893z"/>
	</g>
</g>
</svg>
