<?xml version="1.0" encoding="utf-8"?>
<!-- Generator: Adobe Illustrator 16.0.0, SVG Export Plug-In . SVG Version: 6.00 Build 0)  -->
<!DOCTYPE svg PUBLIC "-//W3C//DTD SVG 1.1//EN" "http://www.w3.org/Graphics/SVG/1.1/DTD/svg11.dtd">
<svg version="1.1" id="图层_1" xmlns="http://www.w3.org/2000/svg" xmlns:xlink="http://www.w3.org/1999/xlink" x="0px" y="0px"
	 width="30px" height="24px" viewBox="0 0 30 24" enable-background="new 0 0 30 24" xml:space="preserve">
<g>
	<g>
		<path fill="#DA632A" d="M27.286,6.105c0,3.2-2.672,5.793-5.963,5.793s-5.957-2.593-5.957-5.793c0-3.196,2.666-5.791,5.957-5.791
			S27.286,2.909,27.286,6.105z"/>
		<path fill="#DA632A" d="M7.657,11.247c0,0,5.211,0.004,5.51,0.004c0.764,0.02,0.725-0.787,0.725-0.787s0.02-8.479-0.007-9.489
			c-0.028-1.065-1.05-0.973-1.05-0.973H3.076c0,0-1.083-0.068-1.043,1.124c-0.03,1.023-0.015,12.745-0.015,12.745
			s-0.111,0.988,0.931,1.018c0.886,0.035,22.446,0.031,22.446,0.031s0.483-0.029,0.47,0.404c-0.014,0.393,0.008,1.076,0.008,1.076
			s0.022,0.406-0.443,0.436c-0.113,0-22.205,0-22.205,0s-1.358-0.254-1.221,1.027c0,0.66,0.001,5.164,0,5.107
			C2,22.914,1.91,23.949,3.057,24c0.822,0,23.79,0,23.79,0s1.129-0.016,1.112-1.203c0.077-0.281,0-8.561,0-8.561
			s0.141-1.158-1.28-1.045c-1.113-0.002-19.044,0-19.044,0s-0.412,0.006-0.372-0.339c-0.001-0.184-0.011-1.082,0-1.266
			C7.239,11.196,7.657,11.247,7.657,11.247z"/>
	</g>
</g>
</svg>
