<?xml version="1.0" encoding="utf-8"?>
<!-- Generator: Adobe Illustrator 21.0.0, SVG Export Plug-In . SVG Version: 6.00 Build 0)  -->
<svg version="1.1" id="图层_1" xmlns="http://www.w3.org/2000/svg" xmlns:xlink="http://www.w3.org/1999/xlink" x="0px" y="0px"
	 viewBox="0 0 26 52" style="enable-background:new 0 0 26 52;" xml:space="preserve">
<style type="text/css">
	.st0{fill:none;}
	.st1{fill:#CDE7ED;}
	.st2{fill:none;stroke:#CDE7ED;stroke-width:2;stroke-linejoin:round;}
	.st3{fill:#0397BB;}
</style>
<title>首页</title>
<rect x="0" class="st0" width="26" height="26"/>
<rect x="0" y="26" class="st0" width="26" height="26"/>
<g>
	<path class="st1" d="M22,16h-2V3H6v10H4V2c0-0.6,0.4-1,1-1h16c0.6,0,1,0.4,1,1V16z"/>
	<path class="st2" d="M21,15.5"/>
	<path class="st1" d="M13.6,14.1l2.1,2.3c0.4,0.4,0.9,0.6,1.5,0.6H22v5H4v-8h10 M14.1,12H2v12h22v-9h-7.1L14.1,12L14.1,12z"/>
	<path class="st1" d="M17,7H9C8.4,7,8,6.6,8,6s0.4-1,1-1h8c0.6,0,1,0.4,1,1S17.6,7,17,7z"/>
	<path class="st1" d="M17,10H9c-0.6,0-1-0.4-1-1s0.4-1,1-1h8c0.6,0,1,0.4,1,1S17.6,10,17,10z"/>
</g>
<g>
	<path class="st3" d="M22,42.5h-2v-13H6v10H4v-11c0-0.6,0.4-1,1-1h16c0.6,0,1,0.4,1,1V42.5z"/>
	<path class="st3" d="M21,42"/>
	<path class="st3" d="M13.6,40.6l2.1,2.3c0.4,0.4,0.9,0.6,1.5,0.6H22v5H4v-8h10 M14.1,38.5H2v12h22v-9h-7.1L14.1,38.5L14.1,38.5z"/>
	<path class="st3" d="M17,33.5H9c-0.6,0-1-0.4-1-1s0.4-1,1-1h8c0.6,0,1,0.4,1,1S17.6,33.5,17,33.5z"/>
	<path class="st3" d="M17,36.5H9c-0.6,0-1-0.4-1-1s0.4-1,1-1h8c0.6,0,1,0.4,1,1S17.6,36.5,17,36.5z"/>
</g>
</svg>
