<svg xmlns="http://www.w3.org/2000/svg" width="14" height="10.9" viewBox="0 0 14 10.9"><defs><style>.a{fill:#fff;}.b{fill:#00a0e9;}</style></defs><title>闸阀</title><polygon class="a" points="0 10 0 4 0.9 3.6 7 6.6 7 7.4 0.9 10.4 0 10"/><path class="b" d="M1,4L7,7,1,10V4m0.2-.9L0,4v6l1.2,0.9L7,7.9V6.1l-5.8-3h0Z"/><polygon class="a" points="7 7.4 7 6.6 12.6 3.6 13 4 13 10 12.6 10.4 7 7.4"/><path class="b" d="M13,4v6L7,7l6-3m-0.2-.9L7,6.1V7.9l5.8,3L14,10V4l-1.2-.9h0Z"/><rect class="b" x="6" y="2" width="2" height="5"/><rect class="b" x="4" width="6" height="2"/></svg>