<svg xmlns="http://www.w3.org/2000/svg" width="68" height="48" viewBox="0 0 68 48"><defs><style>.a{fill:#13ae67;}.b{fill:#009414;}.c{fill:#31cfd1;}.d{fill:#efefef;}.e,.h{fill:#46e1e3;}.f{fill:#dcdddd;}.g{fill:#c9caca;}.h{stroke:#c9caca;stroke-miterlimit:10;stroke-width:2px;}</style></defs><title>水厂</title><rect class="a" x="1.5" y="1.5" width="65" height="45" rx="2.5" ry="2.5"/><path class="b" d="M64,3a1,1,0,0,1,1,1V44a1,1,0,0,1-1,1H4a1,1,0,0,1-1-1V4A1,1,0,0,1,4,3H64m0-3H4A4,4,0,0,0,0,4V44a4,4,0,0,0,4,4H64a4,4,0,0,0,4-4V4a4,4,0,0,0-4-4h0Z"/><path class="c" d="M55,22a9,9,0,1,1,9-9A9,9,0,0,1,55,22Z"/><path class="d" d="M55,5a8,8,0,1,1-8,8,8,8,0,0,1,8-8m0-2A10,10,0,1,0,65,13,10,10,0,0,0,55,3h0Z"/><path class="e"/><polygon class="f" points="56 5 54 5 54 21 56 21 56 5 56 5"/><circle class="e" cx="55" cy="13" r="2"/><path class="d" d="M55,12a1,1,0,1,1-1,1,1,1,0,0,1,1-1m0-2a3,3,0,1,0,3,3,3,3,0,0,0-3-3h0Z"/><rect class="b" x="54" y="12" width="2" height="2"/><circle class="c" cx="55" cy="35" r="9"/><path class="d" d="M55,27a8,8,0,1,1-8,8,8,8,0,0,1,8-8m0-2A10,10,0,1,0,65,35,10,10,0,0,0,55,25h0Z"/><path class="e"/><polygon class="f" points="56 27 54 27 54 43 56 43 56 27 56 27"/><circle class="e" cx="55" cy="35" r="2"/><path class="d" d="M55,34a1,1,0,1,1-1,1,1,1,0,0,1,1-1m0-2a3,3,0,1,0,3,3,3,3,0,0,0-3-3h0Z"/><rect class="b" x="54" y="34" width="2" height="2"/><path class="c" d="M37,22a9,9,0,1,1,9-9A9,9,0,0,1,37,22Z"/><path class="d" d="M37,5a8,8,0,1,1-8,8,8,8,0,0,1,8-8m0-2A10,10,0,1,0,47,13,10,10,0,0,0,37,3h0Z"/><path class="e"/><polygon class="f" points="38 5 36 5 36 21 38 21 38 5 38 5"/><circle class="e" cx="37" cy="13" r="2"/><path class="d" d="M37,12a1,1,0,1,1-1,1,1,1,0,0,1,1-1m0-2a3,3,0,1,0,3,3,3,3,0,0,0-3-3h0Z"/><rect class="b" x="36" y="12" width="2" height="2"/><path class="c" d="M37,44a9,9,0,1,1,9-9A9,9,0,0,1,37,44Z"/><path class="d" d="M37,27a8,8,0,1,1-8,8,8,8,0,0,1,8-8m0-2A10,10,0,1,0,47,35,10,10,0,0,0,37,25h0Z"/><path class="e"/><polygon class="f" points="38 27 36 27 36 43 38 43 38 27 38 27"/><circle class="e" cx="37" cy="35" r="2"/><path class="d" d="M37,34a1,1,0,1,1-1,1,1,1,0,0,1,1-1m0-2a3,3,0,1,0,3,3,3,3,0,0,0-3-3h0Z"/><rect class="b" x="36" y="34" width="2" height="2"/><rect class="c" x="4" y="4" width="20" height="40" rx="1" ry="1"/><path class="g" d="M23,5V43H5V5H23m0-2H5A2,2,0,0,0,3,5V43a2,2,0,0,0,2,2H23a2,2,0,0,0,2-2V5a2,2,0,0,0-2-2h0Z"/><rect class="h" x="5" y="5" width="18" height="2"/><rect class="h" x="5" y="40" width="18" height="2"/><path class="c"/><polygon class="d" points="11 1 9 1 9 47 11 47 11 1 11 1"/><path class="c"/><polygon class="d" points="19 1 17 1 17 47 19 47 19 1 19 1"/></svg>